<?xml version="1.0" encoding="UTF-8"?>
<svg version="1.1" xmlns="http://www.w3.org/2000/svg" width="823" height="303">
<path d="M0 0 C82.5 0 165 0 250 0 C250.83643413 4.18217066 251.11821238 7.47588674 251.10247803 11.68844604 C251.10080938 12.67740755 251.10080938 12.67740755 251.09910703 13.68634808 C251.09408147 15.88843701 251.08173155 18.0904216 251.06933594 20.29248047 C251.06410043 21.87476985 251.05927378 23.45706063 251.05482483 25.03935242 C251.04118805 29.33541346 251.02073505 33.63141525 250.99825954 37.92743826 C250.98437624 40.616947 250.97174563 43.30645879 250.9595108 45.99597549 C250.92089546 54.42633317 250.87829734 62.856656 250.82973552 71.28696239 C250.77385319 80.98831218 250.73075886 90.68960426 250.69905448 100.39106262 C250.67373329 107.90732604 250.63706964 115.42348202 250.59196877 122.93965256 C250.56531948 127.41975703 250.54324673 131.89976559 250.53295135 136.37994003 C250.52291411 140.6039114 250.49862837 144.82757721 250.46401787 149.0514164 C250.45374294 150.58992437 250.44830814 152.12847471 250.44845009 153.66701698 C250.44470701 166.81865311 249.32619343 179.88184417 243.3125 191.8125 C242.96437256 192.5247876 242.61624512 193.2370752 242.25756836 193.97094727 C239.2227536 199.97028536 235.5308993 205.03062657 231 210 C229.93458984 211.24136719 229.93458984 211.24136719 228.84765625 212.5078125 C220.27137002 222.36526627 210.52655541 230.23369395 200.0703125 237.96875 C196.37167763 240.70925238 192.73547643 243.51970395 189.125 246.375 C187.98308626 247.27736063 186.84115886 248.17970398 185.69921875 249.08203125 C184.81435791 249.78126709 184.81435791 249.78126709 183.91162109 250.49462891 C180.26551423 253.36587985 176.6011219 256.21365474 172.9375 259.0625 C172.16825195 259.66102783 171.39900391 260.25955566 170.60644531 260.8762207 C167.25537534 263.48098096 163.90143846 266.08136117 160.52734375 268.65625 C153.82548594 273.77191842 147.24220614 279.00477955 140.72998047 284.35961914 C139.46928671 285.39307794 138.20306002 286.41982737 136.93115234 287.43945312 C135.57461924 288.53565535 134.23786807 289.656573 132.91650391 290.79492188 C130.99524995 292.38089023 129.18406038 293.80132681 127 295 C122.71410809 294.42980093 119.94817559 291.47905041 116.75 288.6875 C111.9115474 284.54112793 106.9516856 280.60067536 101.875 276.75 C95.80417144 272.14071793 89.76106569 267.49952557 83.75 262.8125 C78.67818202 258.85973466 73.60079895 254.91531176 68.5 251 C30.92077875 222.12583887 30.92077875 222.12583887 24 215 C24 214.34 24 213.68 24 213 C23.34 213 22.68 213 22 213 C7.74402887 197.11731017 -0.13675753 177.37451974 -0.12025452 155.97010803 C-0.12111053 155.30011276 -0.12196655 154.63011749 -0.12284851 153.93981934 C-0.1244922 151.70732896 -0.11899893 149.47491506 -0.11352539 147.24243164 C-0.11321881 145.60957307 -0.11335297 143.97671437 -0.11389065 142.34385586 C-0.11411581 137.98297699 -0.10833249 133.62212573 -0.10128021 129.26125336 C-0.0955727 125.16468725 -0.09531641 121.06812776 -0.09460449 116.97155762 C-0.08936339 105.00186811 -0.07540218 93.0321837 -0.0625 81.0625 C-0.041875 54.311875 -0.02125 27.56125 0 0 Z M24 24 C23.938125 46.8525 23.87625 69.705 23.8125 93.25 C23.78518799 100.44973633 23.75787598 107.64947266 23.72973633 115.06738281 C23.71969931 121.55502105 23.71969931 121.55502105 23.71366882 128.04266357 C23.71088844 130.91887439 23.69970471 133.79491692 23.68327332 136.67108154 C23.66252209 140.35281318 23.65655827 144.03430409 23.66078317 147.71608877 C23.6594887 149.68734124 23.64348897 151.65856779 23.62671375 153.6297493 C23.69456864 173.20294124 31.23179406 188.27943862 44.9296875 201.921875 C46.8983945 203.69624612 48.92129621 205.35538885 51 207 C52.52560547 208.21042969 52.52560547 208.21042969 54.08203125 209.4453125 C56.45797425 211.32141538 58.84231743 213.18634583 61.23046875 215.046875 C64.35127749 217.48270706 67.43988674 219.95583974 70.52075195 222.44189453 C77.70154427 228.23380154 85.01932015 233.81416057 92.41796875 239.32421875 C95.88914446 241.91028513 99.31470973 244.54995503 102.72265625 247.21875 C106.78758261 250.39817782 110.87097187 253.55294939 114.9765625 256.6796875 C116.74143471 258.03412431 118.4934521 259.40626975 120.2109375 260.8203125 C122.12250385 262.4190423 122.12250385 262.4190423 125 264 C129.78800551 262.82996746 133.22529339 259.63725211 136.9375 256.5625 C138.27816868 255.47076796 139.61932554 254.37963516 140.9609375 253.2890625 C141.63608398 252.73766602 142.31123047 252.18626953 143.00683594 251.61816406 C145.99814191 249.18965157 149.02779441 246.8114021 152.0625 244.4375 C153.21878418 243.53129361 154.37503416 242.62504358 155.53125 241.71875 C156.10230469 241.27144531 156.67335937 240.82414063 157.26171875 240.36328125 C159.02015122 238.98419601 160.77606979 237.60197149 162.53125 236.21875 C168.11863136 231.81724922 173.7208733 227.44054184 179.375 223.125 C208.81372468 201.58600757 208.81372468 201.58600757 225 170 C225.08904997 167.99366094 225.12197987 165.98457088 225.12025452 163.97625732 C225.12163201 162.74485394 225.12300951 161.51345055 225.12442875 160.2447319 C225.12088216 158.8776726 225.11724427 157.51061353 225.11352539 156.14355469 C225.11321901 154.68127063 225.11335262 153.21898642 225.11389065 151.75670242 C225.11411639 147.84109509 225.10832086 143.92551833 225.10128021 140.00991821 C225.09558495 136.33554996 225.09531707 132.66118915 225.09460449 128.98681641 C225.08935734 118.24120689 225.07539618 107.49560306 225.0625 96.75 C225.0315625 60.73875 225.0315625 60.73875 225 24 C158.67 24 92.34 24 24 24 Z " fill="#489156" transform="translate(4,5)"/>
<path d="M0 0 C0.96616997 -0.00503792 0.96616997 -0.00503792 1.95185852 -0.01017761 C4.09642436 -0.01972712 6.24091222 -0.02163384 8.38549805 -0.02270508 C9.8798984 -0.02591894 11.37429843 -0.02928311 12.86869812 -0.03279114 C16.01370978 -0.03879518 19.15869394 -0.04063014 22.30371094 -0.04003906 C26.30343353 -0.03993829 30.3029752 -0.05349619 34.30265522 -0.07081127 C37.39736207 -0.08202958 40.49202686 -0.08395515 43.58675194 -0.08342934 C45.05890708 -0.08459833 46.5310637 -0.08895833 48.00319862 -0.0967617 C67.1117229 -0.18842863 82.93973315 2.56832772 97.02612305 16.27807617 C107.16728215 26.99819648 109.46619414 39.28488128 109.1472168 53.59057617 C108.56769925 65.16643914 103.97840609 74.49975104 96.2722168 82.95776367 C91.13616679 87.56703932 85.91183456 90.91472613 79.8347168 94.14526367 C81.07134445 98.13618181 82.52247586 101.6790973 84.56518555 105.32104492 C85.38865479 106.79323486 85.38865479 106.79323486 86.22875977 108.29516602 C87.116521 109.86065186 87.116521 109.86065186 88.0222168 111.45776367 C88.63210449 112.5426709 89.24199219 113.62757812 89.87036133 114.74536133 C93.19859401 120.62791743 96.59718735 126.46044374 100.09643555 132.24291992 C100.44234238 132.81498672 100.78824921 133.38705353 101.14463806 133.97645569 C102.82169389 136.74484757 104.50964224 139.50589035 106.21044922 142.25976562 C106.81606689 143.25065186 107.42168457 144.24153809 108.0456543 145.26245117 C108.58496582 146.13498535 109.12427734 147.00751953 109.67993164 147.90649414 C110.8347168 150.14526367 110.8347168 150.14526367 110.8347168 153.14526367 C106.83518898 153.34388887 102.83509502 153.52714459 98.8347168 153.70776367 C97.70936523 153.76383789 96.58401367 153.81991211 95.42456055 153.87768555 C93.22029565 153.97436383 91.01462202 154.04338841 88.80859375 154.08300781 C85.93703614 154.09767772 85.93703614 154.09767772 83.50732422 154.40869141 C81.50268555 154.48901367 81.50268555 154.48901367 77.8347168 153.14526367 C74.6618286 149.11004464 72.44368668 144.64509614 70.1472168 140.08276367 C69.45983057 138.77094743 68.76953177 137.46065348 68.07641602 136.15185547 C66.66417642 133.47623696 65.26735134 130.79345136 63.88305664 128.10327148 C60.82700426 122.1755603 57.63828581 116.32049785 54.4597168 110.45776367 C53.91871338 109.44383545 53.37770996 108.42990723 52.8203125 107.38525391 C52.32233154 106.45656494 51.82435059 105.52787598 51.3112793 104.57104492 C50.87895996 103.76062744 50.44664062 102.95020996 50.0012207 102.11523438 C48.86434129 100.00945094 48.86434129 100.00945094 46.8347168 98.14526367 C39.2447168 98.14526367 31.6547168 98.14526367 23.8347168 98.14526367 C23.5047168 116.29526367 23.1747168 134.44526367 22.8347168 153.14526367 C18.69220651 153.83568205 15.35356884 154.27307988 11.25268555 154.27807617 C9.73191406 154.28000977 9.73191406 154.28000977 8.18041992 154.28198242 C7.13821289 154.27811523 6.09600586 154.27424805 5.0222168 154.27026367 C3.96067383 154.27413086 2.89913086 154.27799805 1.80541992 154.28198242 C0.29431641 154.28004883 0.29431641 154.28004883 -1.24731445 154.27807617 C-2.16746338 154.27694824 -3.0876123 154.27582031 -4.03564453 154.2746582 C-6.1652832 154.14526367 -6.1652832 154.14526367 -7.1652832 153.14526367 C-7.26414137 151.18595497 -7.29160567 149.22303145 -7.29226685 147.26123047 C-7.29508667 145.98234955 -7.29790649 144.70346863 -7.30081177 143.38583374 C-7.29886717 141.95538316 -7.29681898 140.52493272 -7.29467773 139.09448242 C-7.29603172 137.5984391 -7.29781164 136.10239611 -7.29998779 134.60635376 C-7.30456246 130.53208734 -7.30277243 126.45784613 -7.29960871 122.38357925 C-7.29708527 118.12925394 -7.2994226 113.87493086 -7.30099487 109.62060547 C-7.30281662 102.47484955 -7.30041013 95.32910396 -7.2956543 88.18334961 C-7.29021167 79.90987795 -7.29197432 71.63643093 -7.2974807 63.36295986 C-7.30201169 56.27253476 -7.30266245 49.1821171 -7.30004203 42.09169102 C-7.29847918 37.85119281 -7.29828571 33.61070621 -7.30157852 29.37020874 C-7.30445703 25.38449316 -7.30248192 21.3988095 -7.29668427 17.41309738 C-7.29535656 15.94608997 -7.29575096 14.47907989 -7.29794693 13.01207352 C-7.30065799 11.01781558 -7.29666401 9.02355181 -7.29226685 7.02929688 C-7.29188982 5.91061722 -7.29151279 4.79193756 -7.29112434 3.63935852 C-7.04851547 -1.16900169 -4.18961666 0.01365425 0 0 Z M22.8347168 27.14526367 C22.8347168 41.66526367 22.8347168 56.18526367 22.8347168 71.14526367 C32.1778418 71.29995117 32.1778418 71.29995117 41.7097168 71.45776367 C43.65475098 71.50328369 45.59978516 71.54880371 47.60375977 71.59570312 C60.50821388 71.84462443 60.50821388 71.84462443 71.8347168 66.14526367 C74.12031804 63.94858057 74.12031804 63.94858057 75.3972168 61.52026367 C75.85225586 60.76487305 76.30729492 60.00948242 76.77612305 59.23120117 C79.66476184 53.53919706 79.85883269 47.55731809 78.03393555 41.47729492 C75.18418636 35.0041533 71.25807661 31.1259666 64.8347168 28.14526367 C60.33672543 26.94920569 55.87172433 27.01704963 51.25268555 27.04760742 C50.53036743 27.0486145 49.80804932 27.04962158 49.06384277 27.05065918 C46.38328447 27.05586415 43.70274893 27.0698253 41.0222168 27.08276367 C32.0194043 27.11370117 32.0194043 27.11370117 22.8347168 27.14526367 Z " fill="#FEFEFD" transform="translate(482.165283203125,4.854736328125)"/>
<path d="M0 0 C4.21749219 -0.07419134 8.43463811 -0.1286204 12.65258789 -0.16479492 C14.08722552 -0.17987589 15.52181708 -0.2003438 16.95629883 -0.22631836 C19.01915859 -0.26273437 21.08140858 -0.27973243 23.14453125 -0.29296875 C25.00621948 -0.31653442 25.00621948 -0.31653442 26.90551758 -0.34057617 C30 0 30 0 31.56552124 1.19068909 C33.3587795 3.4525293 34.11631848 5.55512064 35.04614258 8.28955078 C35.42164246 9.37965454 35.79714233 10.4697583 36.184021 11.59289551 C36.58348938 12.78169312 36.98295776 13.97049072 37.39453125 15.1953125 C37.81889465 16.43518921 38.24325806 17.67506592 38.68048096 18.95251465 C39.82998848 22.31146559 40.96873887 25.67397317 42.10554886 29.03723907 C43.28388797 32.51709815 44.4723421 35.99349758 45.65991211 39.47021484 C47.78971092 45.7097749 49.91155801 51.95200083 52.02963924 58.1955471 C55.06963325 67.15519788 58.12936788 76.10810518 61.18783569 85.0614624 C62.03899779 87.55611781 62.88769511 90.05159768 63.7355957 92.54736328 C64.2520474 94.06545299 64.7685646 95.58352041 65.28515625 97.1015625 C65.52297318 97.80209747 65.7607901 98.50263245 66.0058136 99.22439575 C67.67864304 104.12823981 69.45759152 108.98441641 71.33374023 113.81396484 C72 116 72 116 72 120 C72.66 120 73.32 120 74 120 C74.10802948 119.38956345 74.21605896 118.77912689 74.32736206 118.15019226 C75.47205583 112.0290293 77.08183749 106.26813699 79.1328125 100.39453125 C79.59639915 99.0414537 79.59639915 99.0414537 80.0693512 97.66104126 C81.08203064 94.70947205 82.10349404 91.76102476 83.125 88.8125 C83.83765312 86.74054185 84.54963734 84.66835352 85.26098633 82.59594727 C86.74685952 78.26850712 88.23564023 73.94208222 89.72607422 69.61621094 C91.98077713 63.06474616 94.21416684 56.50615763 96.44140625 49.9453125 C96.79978577 48.88992783 97.15816528 47.83454315 97.52740479 46.74717712 C98.9177146 42.65220046 100.30764566 38.55709546 101.69708252 34.46182251 C103.7872234 28.30413718 105.88805952 22.15024074 108 16 C108.25299866 15.25921204 108.50599731 14.51842407 108.7666626 13.75518799 C109.44889289 11.76295198 110.1388815 9.77361476 110.83203125 7.78515625 C111.20690674 6.70242432 111.58178223 5.61969238 111.96801758 4.50415039 C113 2 113 2 115 0 C117.88916016 -0.22705078 117.88916016 -0.22705078 121.5390625 -0.1953125 C123.49199219 -0.18564453 123.49199219 -0.18564453 125.484375 -0.17578125 C126.86458595 -0.15906929 128.24479429 -0.14213939 129.625 -0.125 C131.01301452 -0.11497006 132.40103589 -0.10584423 133.7890625 -0.09765625 C137.19288026 -0.07401863 140.59635506 -0.04106867 144 0 C145.04875145 3.18849456 144.95904082 4.9583605 143.82275391 8.09863281 C143.53653671 8.90626068 143.25031952 9.71388855 142.95542908 10.54598999 C142.47089012 11.86127182 142.47089012 11.86127182 141.9765625 13.203125 C141.47782372 14.59683823 141.47782372 14.59683823 140.9690094 16.01870728 C139.86414356 19.09942901 138.7444627 22.17455563 137.625 25.25 C136.84823406 27.40861021 136.07261606 29.56763382 135.2980957 31.72705078 C133.68219294 36.22948497 132.06130407 40.73007816 130.43701172 45.22949219 C127.00233356 54.75604059 123.62920388 64.30428598 120.25570679 73.85263062 C118.8389102 77.86129513 117.41920669 81.86892749 115.99952698 85.87657166 C111.19364374 99.44396873 106.40068152 113.01591545 101.61328125 126.58984375 C101.19256348 127.7794873 100.7718457 128.96913086 100.33837891 130.19482422 C99.35028253 132.99472471 98.37681965 135.79942892 97.40771484 138.60595703 C97.13879929 139.37992325 96.86988373 140.15388947 96.59281921 140.9513092 C96.07132107 142.45258993 95.55310347 143.95501546 95.03865051 145.45872498 C93.93800223 148.61692485 92.86629906 151.20055142 91 154 C88.25714531 154.2917727 85.74342461 154.39605798 83 154.36328125 C81.81277344 154.36402901 81.81277344 154.36402901 80.6015625 154.36479187 C78.92705781 154.36244989 77.25254971 154.35271402 75.578125 154.33618164 C73.0100976 154.31259275 70.44310814 154.31561887 67.875 154.32226562 C66.24999379 154.31668888 64.62499196 154.30957902 63 154.30078125 C62.22914063 154.30169266 61.45828125 154.30260406 60.6640625 154.30354309 C55.23102547 154.23102547 55.23102547 154.23102547 53 152 C52.01131156 149.29601001 51.09978171 146.60540951 50.23046875 143.86328125 C49.69338863 142.21126481 49.15478705 140.55974232 48.61474609 138.90869141 C48.34386169 138.0790387 48.07297729 137.24938599 47.79388428 136.39459229 C46.66386775 132.98612466 45.46297916 129.60589308 44.23828125 126.23046875 C44.00669312 125.59157715 43.77510498 124.95268555 43.53649902 124.29443359 C43.05148021 122.95958282 42.56568487 121.62501398 42.0791626 120.29071045 C40.6761913 116.44189364 39.28214232 112.58983952 37.88671875 108.73828125 C37.58254028 107.8992627 37.27836182 107.06024414 36.96496582 106.19580078 C32.00452316 92.5048009 27.10135425 78.79311981 22.19335938 65.08325195 C21.7928537 63.96449173 21.39234802 62.84573151 20.97970581 61.69306946 C20.17440248 59.44349 19.36916542 57.19388681 18.56399536 54.94425964 C16.23532203 48.44060982 13.89908752 41.93974903 11.55505371 35.44161987 C10.13718648 31.50969515 8.72282437 27.57651496 7.309021 23.64312744 C6.64896623 21.809633 5.9872446 19.9767377 5.3237915 18.14447021 C4.41599767 15.63689621 3.51396881 13.127321 2.61328125 10.6171875 C2.34553391 9.88234131 2.07778656 9.14749512 1.80192566 8.39038086 C0.75396358 5.45429976 0 3.14351172 0 0 Z " fill="#FEFEFD" transform="translate(311,5)"/>
<path d="M0 0 C1.75171509 0.07069702 1.75171509 0.07069702 3.53881836 0.14282227 C5.42890625 0.21533203 5.42890625 0.21533203 7.35717773 0.28930664 C8.69767719 0.34583669 10.03817193 0.40247878 11.37866211 0.45922852 C12.72304457 0.51243456 14.06744554 0.56517504 15.41186523 0.61743164 C18.71350868 0.74760396 22.01488653 0.88258462 25.31616211 1.02172852 C26.09218699 4.45693402 26.44013256 7.6217094 26.43641663 11.14070129 C26.43779129 12.14885895 26.43916595 13.1570166 26.44058228 14.19572449 C26.436987 15.29048599 26.43339172 16.3852475 26.4296875 17.51318359 C26.42983353 18.67458862 26.42997955 19.83599365 26.43013 21.03259277 C26.42943372 24.86883415 26.42165454 28.70502688 26.41381836 32.54125977 C26.41195317 35.20212384 26.41048054 37.86298523 26.40953064 40.52384949 C26.4064255 46.81002554 26.39822312 53.09618415 26.38818115 59.38235253 C26.37699464 66.54073373 26.37150317 73.69911577 26.36648571 80.85750353 C26.35603983 95.57892077 26.33845621 110.30032434 26.31616211 125.02172852 C29.05377837 126.39053664 31.21473806 126.13389684 34.27880859 126.11938477 C35.53028183 126.11608154 36.78175507 126.11277832 38.07115173 126.109375 C38.74175062 126.10525604 39.41234951 126.10113708 40.10326958 126.09689331 C42.20037222 126.0841488 44.29741175 126.07761888 46.39454651 126.07275391 C51.60384366 126.05936927 56.81308092 126.0351775 62.02233887 126.01135254 C66.42220278 125.99163499 70.8220444 125.97598763 75.22194099 125.96578979 C77.28874323 125.95930232 79.35545397 125.94679316 81.42222595 125.93408203 C83.30416405 125.9291272 83.30416405 125.9291272 85.22412109 125.92407227 C86.88386208 125.91621704 86.88386208 125.91621704 88.57713318 125.90820312 C91.31616211 126.02172852 91.31616211 126.02172852 94.31616211 127.02172852 C94.31616211 135.93172852 94.31616211 144.84172852 94.31616211 154.02172852 C81.83391487 154.17478059 69.35163702 154.32354771 56.86924934 154.46469212 C51.0736854 154.53039837 45.27815655 154.59801045 39.48266602 154.66992188 C33.89361855 154.73920253 28.30453439 154.80355039 22.71538925 154.86442375 C20.57904866 154.88856892 18.44272767 154.91451591 16.30643082 154.94226265 C13.32288939 154.98071103 10.3393436 155.0128524 7.35571289 155.04345703 C6.01999237 155.06287605 6.01999237 155.06287605 4.6572876 155.08268738 C-1.45573357 155.13578068 -1.45573357 155.13578068 -3.68383789 154.02172852 C-3.70716533 134.09027908 -3.7248163 114.15883241 -3.73565006 94.22737217 C-3.74081335 84.97351692 -3.74785667 75.71967013 -3.75927734 66.46582031 C-3.76922318 58.40316654 -3.77569108 50.34051889 -3.77792639 42.27785915 C-3.77923366 38.00604331 -3.78232059 33.73424501 -3.78956795 29.46243477 C-3.79632658 25.44636896 -3.79845517 21.43032801 -3.79694557 17.41425705 C-3.79722197 15.93596067 -3.79922802 14.45766351 -3.80304337 12.97937202 C-3.8079781 10.96973895 -3.80623603 8.9600927 -3.80409241 6.95045471 C-3.8050142 5.82310189 -3.80593599 4.69574907 -3.80688572 3.53423405 C-3.63597184 0.04435485 -3.51511458 0.02845858 0 0 Z " fill="#FEFEFD" transform="translate(619.683837890625,3.978271484375)"/>
<path d="M0 0 C11.22 0 22.44 0 34 0 C34.11287844 13.23004788 34.2046459 26.45977692 34.25906086 39.69019699 C34.28517489 45.83335992 34.32060687 51.97617685 34.37719727 58.11914062 C34.43145115 64.0454372 34.46140692 69.97140061 34.47438622 75.89792633 C34.4836379 78.16103614 34.501704 80.42412735 34.52865028 82.68709564 C34.56485147 85.85267299 34.56994894 89.01686677 34.56762695 92.18261719 C34.58560333 93.12201141 34.60357971 94.06140564 34.62210083 95.02926636 C34.57144314 101.39521202 34.57144314 101.39521202 31.65490723 104.48193359 C30.77878784 104.98289551 29.90266846 105.48385742 29 106 C27.49215942 107.04269043 27.49215942 107.04269043 25.95385742 108.10644531 C24.83930485 108.84937647 23.72310603 109.58984249 22.60546875 110.328125 C22.01325027 110.72199402 21.4210318 111.11586304 20.81086731 111.52166748 C18.93785777 112.7666391 17.06272352 114.00836633 15.1875 115.25 C13.90936284 116.09874398 12.63136662 116.94770024 11.35351562 117.796875 C8.23730268 119.86704003 5.11917707 121.93430301 2 124 C0 122 0 122 -0.24609566 119.84858513 C-0.24425207 118.95075876 -0.24240849 118.0529324 -0.24050903 117.12789917 C-0.24325836 116.09862305 -0.24600769 115.06934692 -0.24884033 114.00888062 C-0.2380545 112.30848129 -0.2380545 112.30848129 -0.22705078 110.57373047 C-0.22734283 109.38350281 -0.22763489 108.19327515 -0.22793579 106.96697998 C-0.22677915 103.69853958 -0.21673158 100.43026925 -0.20278788 97.16186285 C-0.19030636 93.74790018 -0.18911206 90.33393436 -0.18673706 86.91995239 C-0.18051469 80.45303099 -0.16409367 73.986177 -0.14403808 67.51928532 C-0.12170259 60.15784073 -0.11069158 52.79639296 -0.10064721 45.43492293 C-0.07972806 30.28990486 -0.04304243 15.14497438 0 0 Z " fill="#468F54" transform="translate(121,90)"/>
<path d="M0 0 C10.89 0 21.78 0 33 0 C33.22601073 13.5693365 33.40943107 27.13742135 33.51812172 40.70821476 C33.57029082 47.00988297 33.64103614 53.31019587 33.75439453 59.61108398 C33.86312935 65.69310736 33.92285829 71.7738282 33.94877243 77.85674858 C33.96723647 80.17614693 34.00329503 82.49547467 34.05730057 84.8143177 C34.46373259 102.98984114 34.46373259 102.98984114 30.90057373 107.88316345 C28.31921556 109.71819309 25.9520211 110.88086503 23 112 C21.9996875 112.68634521 20.999375 113.37269043 19.96875 114.07983398 C17.31567899 115.8704995 14.65888613 117.65548057 12 119.4375 C11.06027344 120.07365234 10.12054688 120.70980469 9.15234375 121.36523438 C8.25644531 121.96529297 7.36054688 122.56535156 6.4375 123.18359375 C5.63183594 123.72556396 4.82617188 124.26753418 3.99609375 124.82592773 C2 126 2 126 0 126 C0 84.42 0 42.84 0 0 Z " fill="#469156" transform="translate(171,55)"/>
<path d="M0 0 C1.18825882 -0.00637985 2.37651764 -0.0127597 3.6007843 -0.01933289 C4.89550156 -0.02044571 6.19021881 -0.02155853 7.52416992 -0.02270508 C8.85837338 -0.02591677 10.19257647 -0.02928077 11.52677917 -0.03279114 C14.32873348 -0.0387898 17.13065691 -0.04063038 19.93261719 -0.04003906 C23.52060657 -0.03993762 27.10839726 -0.053568 30.69633961 -0.07081127 C33.45445155 -0.0819411 36.21251571 -0.08395794 38.97064781 -0.08342934 C40.93599792 -0.08518218 42.90133311 -0.09602069 44.86665344 -0.10697937 C46.66322639 -0.10236443 46.66322639 -0.10236443 48.49609375 -0.09765625 C50.07708611 -0.09979378 50.07708611 -0.09979378 51.6900177 -0.10197449 C54.44213867 0.14526367 54.44213867 0.14526367 58.44213867 2.14526367 C58.44213867 7.42526367 58.44213867 12.70526367 58.44213867 18.14526367 C56.13393359 19.29936621 54.83429591 19.26629337 52.26782227 19.25878906 C50.97671036 19.25867577 50.97671036 19.25867577 49.65951538 19.25856018 C48.72926544 19.2533989 47.7990155 19.24823761 46.84057617 19.24291992 C45.88897614 19.24150497 44.9373761 19.24009003 43.9569397 19.2386322 C40.9103077 19.23302379 37.86374855 19.22046987 34.81713867 19.20776367 C32.75463973 19.20274976 30.69213964 19.19818666 28.62963867 19.1940918 C23.56708787 19.18390148 18.50469504 19.16432769 13.44213867 19.14526367 C13.44213867 27.06526367 13.44213867 34.98526367 13.44213867 43.14526367 C16.31803711 43.13366211 19.19393555 43.12206055 22.15698242 43.11010742 C24.93033742 43.10231743 27.70369121 43.09624034 30.47705078 43.09033203 C32.41032452 43.08529111 34.34359443 43.07845848 36.27685547 43.06982422 C39.04940739 43.05774803 41.82190908 43.05203311 44.59448242 43.04760742 C45.89916725 43.03986549 45.89916725 43.03986549 47.23020935 43.03196716 C49.30119681 43.03177182 51.37208192 43.083182 53.44213867 43.14526367 C57.45600353 47.15912853 54.44213867 54.46880155 54.44213867 60.14526367 C40.91213867 60.47526367 27.38213867 60.80526367 13.44213867 61.14526367 C13.44213867 75.33526367 13.44213867 89.52526367 13.44213867 104.14526367 C7.17213867 104.14526367 0.90213867 104.14526367 -5.55786133 104.14526367 C-7.52003166 102.18309334 -6.6848062 99.17122223 -6.69338989 96.55889893 C-6.69136566 95.61028992 -6.68934143 94.66168091 -6.68725586 93.68432617 C-6.68900818 92.69092224 -6.6907605 91.69751831 -6.69256592 90.67401123 C-6.69698643 87.37274455 -6.69404574 84.07153095 -6.69067383 80.77026367 C-6.69134681 78.4872232 -6.69231679 76.2041828 -6.693573 73.92114258 C-6.69505024 69.12930623 -6.69289456 64.33748849 -6.68823242 59.5456543 C-6.68253513 53.38809733 -6.68581399 47.23058394 -6.69180489 41.07302856 C-6.69540978 36.3566047 -6.69427224 31.64019126 -6.69167709 26.92376709 C-6.69100763 24.65264887 -6.69183693 22.38152973 -6.69415665 20.1104126 C-6.696682 16.94231645 -6.69284423 13.77429195 -6.68725586 10.60620117 C-6.68928009 9.65759216 -6.69130432 8.70898315 -6.69338989 7.73162842 C-6.66806438 0.02416995 -6.66806438 0.02416995 0 0 Z " fill="#FDFEFC" transform="translate(327.557861328125,182.854736328125)"/>
<path d="M0 0 C8.41268285 4.96400541 13.21371979 12.44758181 16.515625 21.484375 C17.55139651 25.59888802 17.64948487 29.49935805 17.640625 33.734375 C17.64449219 35.59835938 17.64449219 35.59835938 17.6484375 37.5 C17.515625 40.484375 17.515625 40.484375 16.515625 41.484375 C14.88887722 41.57777934 13.25808449 41.60182671 11.62866211 41.59790039 C10.58765854 41.59782486 9.54665497 41.59774933 8.47410583 41.59767151 C7.3418306 41.59251022 6.20955536 41.58734894 5.04296875 41.58203125 C3.89018936 41.5806163 2.73740997 41.57920135 1.54969788 41.57774353 C-2.14918564 41.57212505 -5.84800964 41.55956942 -9.546875 41.546875 C-12.04752517 41.54186238 -14.54817629 41.53729906 -17.04882812 41.53320312 C-23.19403088 41.52214962 -29.33919869 41.50539352 -35.484375 41.484375 C-34.89325267 43.2669577 -34.28758415 45.04472135 -33.67578125 46.8203125 C-33.34006104 47.8107959 -33.00434082 48.8012793 -32.65844727 49.82177734 C-30.94809121 53.70057609 -29.26959437 54.71257019 -25.484375 56.484375 C-21.09699348 57.94683551 -17.06182174 58.23378 -12.484375 57.484375 C-10.41195412 56.16715129 -10.41195412 56.16715129 -8.484375 54.484375 C-1.96359589 49.4429015 6.7222068 51.03038947 14.515625 51.484375 C14.845625 52.144375 15.175625 52.804375 15.515625 53.484375 C12.17319558 61.4335441 6.54429932 67.88425904 -1.43334961 71.32495117 C-7.13902957 73.43865337 -12.36594738 73.99689081 -18.421875 73.921875 C-19.74227783 73.9072522 -19.74227783 73.9072522 -21.08935547 73.89233398 C-31.85895967 73.59778241 -38.45764907 70.45552785 -46.28515625 62.984375 C-49.63783409 59.1731604 -51.66848885 55.19457751 -53.484375 50.484375 C-53.9175 49.411875 -54.350625 48.339375 -54.796875 47.234375 C-57.09156348 34.71789239 -55.51960864 22.49097511 -48.9140625 11.546875 C-37.9750592 -4.23398222 -16.89788974 -7.82130897 0 0 Z M-33.484375 19.984375 C-34.79386723 22.80934184 -34.79386723 22.80934184 -34.484375 27.484375 C-23.594375 27.484375 -12.704375 27.484375 -1.484375 27.484375 C-2.41719748 21.42622942 -2.41719748 21.42622942 -5.859375 17.171875 C-6.46523438 16.49511719 -7.07109375 15.81835938 -7.6953125 15.12109375 C-11.3788398 11.75122926 -15.88442413 12.09280261 -20.62109375 12.13671875 C-26.2501804 12.82019585 -30.0072196 15.63793075 -33.484375 19.984375 Z " fill="#FDFEFC" transform="translate(802.484375,213.515625)"/>
<path d="M0 0 C5.43246534 4.2086682 7.89403854 8.97242256 9.6953125 15.52734375 C10.18935538 19.8044564 10.16454356 24.01558124 10.0859375 28.31640625 C10.08027771 29.5008432 10.07461792 30.68528015 10.06878662 31.90560913 C10.0465585 35.65494767 9.99638547 39.40329848 9.9453125 43.15234375 C9.92523007 45.70831944 9.90698237 48.26431025 9.890625 50.8203125 C9.84673817 57.05632142 9.77996231 63.29176199 9.6953125 69.52734375 C7.04941236 69.55419054 4.40378154 69.57410732 1.7578125 69.58984375 C1.00306641 69.59822266 0.24832031 69.60660156 -0.52929688 69.61523438 C-2.45463063 69.62386816 -4.38004331 69.57958708 -6.3046875 69.52734375 C-7.3046875 68.52734375 -7.3046875 68.52734375 -7.3671875 65.96484375 C-7.3465625 65.16046875 -7.3259375 64.35609375 -7.3046875 63.52734375 C-7.95695313 63.93726563 -8.60921875 64.3471875 -9.28125 64.76953125 C-19.00372308 70.76362232 -28.60189257 74.05353381 -40.1796875 71.83984375 C-47.2767978 69.89613066 -52.11081688 65.4151556 -56.3046875 59.52734375 C-58.3204756 53.47997946 -58.42546522 46.10293467 -55.8046875 40.21484375 C-51.8767324 33.60873745 -45.79617182 28.97879259 -38.625 26.37109375 C-29.21068913 23.97875122 -19.03031254 22.3851594 -9.3046875 22.52734375 C-10.77014002 16.1704445 -10.77014002 16.1704445 -14.9921875 11.46484375 C-20.61693787 9.87293327 -24.6327876 10.00658804 -30.1171875 11.71484375 C-33.46729467 13.20311609 -33.46729467 13.20311609 -34.4609375 16.12109375 C-36.3046875 18.52734375 -36.3046875 18.52734375 -38.13354492 18.93286133 C-40.4378301 19.02022881 -42.68960443 18.962623 -44.9921875 18.83984375 C-45.78947266 18.81728516 -46.58675781 18.79472656 -47.40820312 18.77148438 C-49.37450084 18.71261319 -51.33983241 18.6229313 -53.3046875 18.52734375 C-54.7232884 13.72309979 -53.19887567 11.30915017 -50.87109375 6.99609375 C-46.69418725 0.41303912 -41.2100177 -2.5694648 -33.81640625 -4.77734375 C-22.10330622 -7.0965115 -10.25305562 -6.55152876 0 0 Z M-36.3046875 42.52734375 C-38.77811016 46.23747774 -38.68972236 48.13794637 -38.3046875 52.52734375 C-36.54453619 55.71237945 -35.80577834 56.36031347 -32.3046875 57.52734375 C-25.67599552 58.33929196 -19.85900782 57.35198211 -14.3046875 53.52734375 C-10.79270469 49.82707281 -9.0308259 46.21112478 -8.9296875 41.08984375 C-8.90719769 37.71510082 -8.90719769 37.71510082 -10.3046875 36.52734375 C-19.81056566 36.07468289 -28.33785691 37.05014772 -36.3046875 42.52734375 Z " fill="#FDFEFC" transform="translate(567.3046875,215.47265625)"/>
<path d="M0 0 C6.48177028 4.33530169 10.90513125 10.67350477 12.79296875 18.19921875 C13.06383975 22.33354026 13.02544989 26.45605458 12.98828125 30.59765625 C12.98545135 31.78775299 12.98262146 32.97784973 12.97970581 34.20401001 C12.96853692 37.99418312 12.94343792 41.78411741 12.91796875 45.57421875 C12.90793472 48.14843408 12.8988096 50.72265313 12.890625 53.296875 C12.86860829 59.59774786 12.83410066 65.89844285 12.79296875 72.19921875 C6.52296875 72.19921875 0.25296875 72.19921875 -6.20703125 72.19921875 C-6.22161377 70.85287354 -6.23619629 69.50652832 -6.2512207 68.11938477 C-6.30948211 63.09275633 -6.38671265 58.06656286 -6.46948242 53.0402832 C-6.50260123 50.87075902 -6.53067318 48.70115137 -6.5534668 46.53149414 C-6.58725337 43.40084486 -6.63958103 40.27095149 -6.6953125 37.140625 C-6.70170242 36.18088272 -6.70809235 35.22114044 -6.7146759 34.23231506 C-6.84270838 28.27979847 -7.40317392 22.55686549 -10.20703125 17.19921875 C-13.63032976 14.91701974 -15.04840793 14.90180712 -19.08203125 14.88671875 C-20.11070312 14.86996094 -21.139375 14.85320312 -22.19921875 14.8359375 C-25.61292523 15.24824231 -27.45116226 16.17824815 -30.20703125 18.19921875 C-33.37235226 22.60805873 -34.3071691 26.43480059 -34.41235352 31.78417969 C-34.43229874 32.6848114 -34.45224396 33.58544312 -34.47279358 34.5133667 C-34.49786232 35.95887909 -34.49786232 35.95887909 -34.5234375 37.43359375 C-34.5442186 38.42675598 -34.56499969 39.41991821 -34.58641052 40.44317627 C-34.65172874 43.61178757 -34.71070864 46.78048086 -34.76953125 49.94921875 C-34.81273332 52.09896677 -34.85634816 54.24870653 -34.90039062 56.3984375 C-35.00739196 61.66527824 -35.10919116 66.9322003 -35.20703125 72.19921875 C-38.18625718 72.22605862 -41.1652442 72.24597912 -44.14453125 72.26171875 C-44.99466797 72.27009766 -45.84480469 72.27847656 -46.72070312 72.28710938 C-47.52958984 72.29033203 -48.33847656 72.29355469 -49.171875 72.296875 C-49.92073975 72.30211182 -50.66960449 72.30734863 -51.44116211 72.31274414 C-53.20703125 72.19921875 -53.20703125 72.19921875 -54.20703125 71.19921875 C-54.31717462 69.00153307 -54.35617383 66.80026488 -54.36816406 64.59985352 C-54.37312897 63.91041656 -54.37809387 63.22097961 -54.38320923 62.51065063 C-54.39786347 60.2206321 -54.40463788 57.9306828 -54.41015625 55.640625 C-54.41590461 54.0550079 -54.42166238 52.46939084 -54.4274292 50.8837738 C-54.4379482 47.5555692 -54.4437851 44.22738882 -54.44726562 40.89916992 C-54.45275513 36.62711425 -54.47678884 32.35537656 -54.50523758 28.08342075 C-54.5238279 24.80725661 -54.5290676 21.53116964 -54.5306015 18.2549572 C-54.53363628 16.67962847 -54.54169244 15.10430136 -54.55478668 13.52902412 C-54.57177421 11.32842686 -54.56998552 9.12861408 -54.56347656 6.92797852 C-54.56712219 5.67412857 -54.57076782 4.42027863 -54.57452393 3.12843323 C-54.45325134 2.16179245 -54.33197876 1.19515167 -54.20703125 0.19921875 C-50.4419463 -2.31083789 -47.81241516 -1.82661075 -43.51953125 -1.42578125 C-42.81763672 -1.3690625 -42.11574219 -1.31234375 -41.39257812 -1.25390625 C-39.6632284 -1.11273484 -37.93499037 -0.95806166 -36.20703125 -0.80078125 C-35.54703125 0.84921875 -34.88703125 2.49921875 -34.20703125 4.19921875 C-32.90765625 3.02359375 -32.90765625 3.02359375 -31.58203125 1.82421875 C-23.62318888 -5.37663863 -9.03592236 -4.83159076 0 0 Z " fill="#FEFEFC" transform="translate(644.20703125,212.80078125)"/>
<path d="M0 0 C7.09936371 3.91357574 10.6072366 9.83715519 12.8125 17.4375 C13.17387935 20.14922447 13.41244585 22.66050635 13.5 25.375 C13.53270996 26.12934326 13.56541992 26.88368652 13.59912109 27.66088867 C14.1756016 42.9071206 14.35078539 58.2469318 12.8125 73.4375 C6.8725 73.4375 0.9325 73.4375 -5.1875 73.4375 C-5.81330493 65.69316405 -6.2283103 58.07692499 -6.1484375 50.3046875 C-6.13619141 49.04164795 -6.12394531 47.7786084 -6.11132812 46.47729492 C-6.07934278 43.95381137 -6.03425824 41.43045194 -5.97460938 38.9074707 C-5.88227297 31.47790283 -6.16860223 24.34606901 -9.1875 17.4375 C-13.17323049 14.78034634 -17.39855067 15.2233964 -22.0078125 15.90625 C-25.45240943 16.74579334 -27.56674142 18.06633748 -30.1875 20.4375 C-33.42596158 26.34424076 -33.65539155 31.53011344 -33.69921875 38.18359375 C-33.71716995 39.19470718 -33.73512115 40.20582062 -33.75361633 41.24757385 C-33.80752042 44.4566743 -33.84155149 47.66562769 -33.875 50.875 C-33.9081906 53.05926516 -33.94268186 55.24351098 -33.97851562 57.42773438 C-34.06323564 62.76421649 -34.13014185 68.10065649 -34.1875 73.4375 C-40.4575 73.4375 -46.7275 73.4375 -53.1875 73.4375 C-53.1875 49.0175 -53.1875 24.5975 -53.1875 -0.5625 C-36.1875 -0.5625 -36.1875 -0.5625 -34.1875 0.4375 C-33.5625 2.5 -33.5625 2.5 -33.1875 4.4375 C-32.64480469 4.08816406 -32.10210937 3.73882812 -31.54296875 3.37890625 C-30.82753906 2.92386719 -30.11210937 2.46882812 -29.375 2 C-28.66730469 1.54753906 -27.95960938 1.09507812 -27.23046875 0.62890625 C-20.23091055 -3.45305408 -7.48034762 -3.00240368 0 0 Z " fill="#FEFEFD" transform="translate(485.1875,211.5625)"/>
<path d="M0 0 C6.34879072 4.2843238 12.39037365 10.60775174 14.625 18.09375 C14.9375 20 14.9375 20 15 23 C12.69588138 25.30411862 7.39485377 24.6023895 4.2253418 24.67724609 C0.40102369 24.58585535 -1.50073482 24.36310195 -4.6640625 22.0625 C-6.6875 19.625 -6.6875 19.625 -8.32421875 17.1640625 C-10.34902591 14.54927657 -11.85459078 13.912557 -15 13 C-21.20810928 12.3893663 -25.94254695 13.15364436 -31 17 C-36.50604545 23.83892101 -36.59065134 31.60431307 -36 40 C-34.89444686 45.43021688 -33.09216375 50.13517868 -29 54 C-23.98829373 57.00702376 -20.14673 57.44382968 -14.3671875 56.64453125 C-10.5354774 55.60124385 -8.73673364 53.87023285 -6 51 C-5.43152344 49.93458984 -5.43152344 49.93458984 -4.8515625 48.84765625 C-3 47 -3 47 0.79296875 46.609375 C2.25832231 46.63589724 3.72341551 46.68350883 5.1875 46.75 C5.93708984 46.76804687 6.68667969 46.78609375 7.45898438 46.8046875 C9.3065371 46.85175891 11.15343159 46.92350234 13 47 C14.48029237 52.23222838 13.15051581 54.86635543 10.640625 59.5 C5.84840441 66.80243138 -0.7619534 70.53805504 -9 73 C-20.5854106 75.3969815 -31.6772102 74.24430877 -41.67578125 67.76171875 C-50.16405027 61.32775349 -54.69124632 52.72771059 -56.68359375 42.37109375 C-58.20017464 31.00609867 -56.72348659 19.49082582 -49.78515625 10.09765625 C-37.50204552 -4.3356708 -17.21574747 -9.63397789 0 0 Z " fill="#FDFEFC" transform="translate(725,214)"/>
<path d="M0 0 C0.66067978 -0.00095673 1.32135956 -0.00191345 2.00205994 -0.00289917 C3.39826554 -0.00357966 4.79447431 -0.0017345 6.19067383 0.00244141 C8.33486989 0.00780007 10.47885728 0.00248771 12.62304688 -0.00390625 C13.97786505 -0.00324561 15.33268309 -0.00196475 16.6875 0 C18.54580444 0.00169189 18.54580444 0.00169189 20.44165039 0.00341797 C23.27734375 0.1328125 23.27734375 0.1328125 24.27734375 1.1328125 C24.37265356 4.17683672 24.40286014 7.19812958 24.39086914 10.24243164 C24.39101517 11.19842758 24.39116119 12.15442352 24.39131165 13.13938904 C24.3906121 16.31560495 24.38281778 19.49176302 24.375 22.66796875 C24.37313597 24.86372343 24.371712 27.05947852 24.37071228 29.25523376 C24.36688594 35.04701883 24.35705466 40.838779 24.3460083 46.6305542 C24.33579668 52.53560041 24.3312152 58.44065063 24.32617188 64.34570312 C24.3154325 75.94141722 24.29835468 87.53711279 24.27734375 99.1328125 C20.61339321 97.38121059 17.66456841 95.21081931 14.46484375 92.6953125 C8.754077 88.22890225 2.93933473 83.92709177 -2.96020508 79.71313477 C-7.61449828 76.34912845 -7.61449828 76.34912845 -8.72265625 74.1328125 C-8.81480256 71.82493376 -8.84015022 69.514304 -8.83618164 67.20458984 C-8.83632767 66.49228714 -8.83647369 65.77998444 -8.83662415 65.0460968 C-8.83592636 62.68695044 -8.82814022 60.32788261 -8.8203125 57.96875 C-8.81844785 56.33493086 -8.81702417 54.70111116 -8.81602478 53.06729126 C-8.81220334 48.7633307 -8.80237623 44.45940379 -8.7913208 40.15545654 C-8.78109867 35.76510066 -8.77652544 31.37473935 -8.77148438 26.984375 C-8.76075364 18.36717204 -8.74368168 9.74999646 -8.72265625 1.1328125 C-5.81213425 -0.3224485 -3.24709214 0.00295363 0 0 Z " fill="#458F53" transform="translate(80.72265625,124.8671875)"/>
<path d="M0 0 C5.94 0 11.88 0 18 0 C19.89122114 1.89122114 19.12782618 5.19591572 19.12939453 7.70703125 C19.13114685 8.40782806 19.13289917 9.10862488 19.13470459 9.83065796 C19.13912266 12.15796349 19.13618529 14.48519364 19.1328125 16.8125 C19.13348555 18.42293309 19.13445559 20.03336609 19.13571167 21.64379883 C19.13718858 25.02328455 19.13503431 28.4027439 19.13037109 31.78222656 C19.1246738 36.12376505 19.12795285 40.46524173 19.13394356 44.80677795 C19.13754936 48.13350901 19.1364105 51.4602253 19.13381577 54.78695679 C19.13314655 56.38821418 19.13397474 57.9894729 19.13629532 59.59072876 C19.13882216 61.82484511 19.13498085 64.05886 19.12939453 66.29296875 C19.12859894 67.5668042 19.12780334 68.84063965 19.12698364 70.15307617 C19 73 19 73 18 74 C12.06 74 6.12 74 0 74 C0 49.58 0 25.16 0 0 Z " fill="#FEFEFD" transform="translate(397,211)"/>
<path d="M0 0 C120.78 0.495 120.78 0.495 244 1 C244 1.33 244 1.66 244 2 C164.14 2 84.28 2 2 2 C2.12375 28.296875 2.2475 54.59375 2.375 81.6875 C2.40899902 89.97447998 2.44299805 98.26145996 2.47802734 106.79956055 C2.51796005 114.26249651 2.51796005 114.26249651 2.56045532 121.72541809 C2.57923617 125.03567632 2.5926375 128.3459082 2.60269165 131.65620422 C2.6157376 135.89219764 2.63821889 140.12804684 2.66723371 144.36395991 C2.67627234 145.91010229 2.68212985 147.45626775 2.68425441 149.00243509 C2.7040326 161.34219283 4.15228924 172.99893323 7 185 C7.66 185 8.32 185 9 185 C10 188 10 188 9.0625 190.1875 C8.711875 190.785625 8.36125 191.38375 8 192 C0.83769926 177.30737516 -0.4620078 162.21176813 -0.34057617 146.10717773 C-0.339654 144.47310184 -0.34006301 142.83902475 -0.34167194 141.20494938 C-0.34234059 136.88601113 -0.32513814 132.56732963 -0.30384064 128.24845123 C-0.28657046 124.17413147 -0.28594133 120.09986959 -0.28381348 116.0255127 C-0.26816217 104.16280868 -0.22627842 92.30015096 -0.1875 80.4375 C-0.125625 53.893125 -0.06375 27.34875 0 0 Z " fill="#347C44" transform="translate(4,5)"/>
<path d="M0 0 C10.89 0 21.78 0 33 0 C33.11287328 13.62119981 33.20464298 27.24209001 33.25906086 40.86365128 C33.28517613 47.18841143 33.32061049 53.51283559 33.37719727 59.83740234 C33.43144656 65.93876201 33.46140598 72.03979812 33.47438622 78.14138031 C33.48363871 80.47147467 33.50170635 82.80155093 33.52865028 85.13150787 C33.56484515 88.3904728 33.56994917 91.64809362 33.56762695 94.90722656 C33.58560333 95.874673 33.60357971 96.84211945 33.62210083 97.83888245 C33.57131685 104.4072044 33.57131685 104.4072044 30.46452332 107.63079834 C29.65123062 108.08263489 28.83793793 108.53447144 28 109 C27.34 108.67 26.68 108.34 26 108 C26.81139938 107.54248352 27.62279877 107.08496704 28.45878601 106.61358643 C32.21916238 102.74611652 31.70726029 99.39235131 31.65942383 94.18261719 C31.67514938 92.68944473 31.67514938 92.68944473 31.69119263 91.16610718 C31.71999224 87.87604796 31.71364507 84.58703794 31.70703125 81.296875 C31.72014324 79.01571327 31.73544592 76.73456317 31.75285339 74.45343018 C31.79277415 68.4495636 31.80289845 62.44600025 31.80688477 56.4420166 C31.81620279 50.31541707 31.85360802 44.18899671 31.88867188 38.0625 C31.95332018 26.041633 31.98390548 14.02103018 32 2 C22.1 2 12.2 2 2 2 C2 41.27 2 80.54 2 121 C0 119 0 119 -0.24609566 116.89543724 C-0.24425207 116.01973391 -0.24240849 115.14403057 -0.24050903 114.24179077 C-0.24325836 113.23775711 -0.24600769 112.23372345 -0.24884033 111.19926453 C-0.2380545 109.54094353 -0.2380545 109.54094353 -0.22705078 107.84912109 C-0.22734283 106.68815414 -0.22763489 105.52718719 -0.22793579 104.33103943 C-0.22653804 100.47843046 -0.21095575 96.62601285 -0.1953125 92.7734375 C-0.19158395 90.1082832 -0.1886379 87.44313963 -0.18673706 84.77798462 C-0.18051488 78.47043425 -0.16409413 72.162953 -0.14403808 65.85543311 C-0.12170199 58.67536378 -0.11069143 51.4952912 -0.10064721 44.3151958 C-0.0797285 29.54342363 -0.04304309 14.77172575 0 0 Z " fill="#3A7844" transform="translate(171,55)"/>
<path d="M0 0 C0.33 0 0.66 0 1 0 C1.09361175 18.84601249 1.16406152 37.69197752 1.20724869 56.53817463 C1.22783791 65.28960779 1.25588854 74.04089614 1.30175781 82.79223633 C1.34173744 90.42356362 1.36745925 98.05478599 1.37635398 105.6862151 C1.38154999 109.72373049 1.39368565 113.76094581 1.42292023 117.79836464 C1.4502657 121.60608869 1.45840686 125.41339183 1.45243073 129.22120476 C1.45352248 130.61146973 1.46136202 132.00175019 1.4768219 133.39192963 C1.65170593 149.94316159 -4.6531199 163.89276196 -16 176 C-16.66 176 -17.32 176 -18 176 C-18.20625 176.763125 -18.4125 177.52625 -18.625 178.3125 C-20.42070704 181.82229103 -22.43136312 182.52599781 -26 184 C-24.47095834 180.29144039 -22.22940107 178.14892259 -19.3125 175.4375 C-11.09053351 167.36976954 -2.53667327 155.56860274 -1.86412811 143.57747555 C-1.85897438 142.6692986 -1.85382065 141.76112165 -1.84851074 140.82542419 C-1.83599525 139.25546692 -1.83599525 139.25546692 -1.82322693 137.65379333 C-1.81904251 136.5104805 -1.81485809 135.36716766 -1.81054688 134.18920898 C-1.80225357 132.98044098 -1.79396027 131.77167297 -1.78541565 130.52627563 C-1.7680045 127.89681718 -1.7523499 125.26741637 -1.73963928 122.63793755 C-1.71932894 118.46114598 -1.69167817 114.28442235 -1.66296387 110.10768127 C-1.60798632 101.97089869 -1.55990092 93.8340831 -1.51302338 85.69725037 C-1.4536526 75.3955331 -1.39279906 65.09383435 -1.32245111 54.79218537 C-1.29902971 51.33029687 -1.27743954 47.86841828 -1.26036072 44.40649223 C-1.18515941 29.57563464 -0.99104879 14.80093132 0 0 Z " fill="#33733D" transform="translate(230,29)"/>
<path d="M0 0 C3.76422743 2.53509194 4.75784002 4.15244006 6 8.5 C6 13.32773113 4.52272814 15.42288871 1.25 18.8125 C-2.04677442 20.55246428 -4.32056389 20.44406988 -8 20 C-11.23206585 18.53642301 -13.29706073 17.39992144 -14.921875 14.1640625 C-16.11453103 10.36792563 -16.15840108 8.45019255 -14.8125 4.625 C-10.97731163 -0.92941075 -6.2380366 -0.95510608 0 0 Z " fill="#FCFEFA" transform="translate(411,182)"/>
<path d="M0 0 C0.66 0 1.32 0 2 0 C2.33 39.6 2.66 79.2 3 120 C14.0693122 113.10735499 14.0693122 113.10735499 25 106 C25.66 106.33 26.32 106.66 27 107 C18.78100148 112.84032365 10.40377479 118.43109857 2 124 C0 122 0 122 -0.24609566 119.84858513 C-0.24425207 118.95075876 -0.24240849 118.0529324 -0.24050903 117.12789917 C-0.24325836 116.09862305 -0.24600769 115.06934692 -0.24884033 114.00888062 C-0.2380545 112.30848129 -0.2380545 112.30848129 -0.22705078 110.57373047 C-0.22734283 109.38350281 -0.22763489 108.19327515 -0.22793579 106.96697998 C-0.22677915 103.69853958 -0.21673158 100.43026925 -0.20278788 97.16186285 C-0.19030636 93.74790018 -0.18911206 90.33393436 -0.18673706 86.91995239 C-0.18051469 80.45303099 -0.16409367 73.986177 -0.14403808 67.51928532 C-0.12170259 60.15784073 -0.11069158 52.79639296 -0.10064721 45.43492293 C-0.07972807 30.28991102 -0.04453743 15.14496224 0 0 Z " fill="#31703B" transform="translate(121,90)"/>
<path d="M0 0 C4.25414623 -0.02465622 8.50825498 -0.04283899 12.76245117 -0.05493164 C14.21070073 -0.05997101 15.65894517 -0.06680253 17.10717773 -0.07543945 C19.18474588 -0.08752247 21.26224697 -0.09323211 23.33984375 -0.09765625 C24.59144287 -0.10289307 25.84304199 -0.10812988 27.13256836 -0.11352539 C30 0 30 0 31 1 C31.10141516 3.63641152 31.13966447 6.24596267 31.1328125 8.8828125 C31.13424759 10.09250198 31.13424759 10.09250198 31.13571167 11.32662964 C31.13639455 13.04669268 31.13453278 14.76675826 31.13037109 16.48681641 C31.12512115 19.06549245 31.1302609 21.64398639 31.13671875 24.22265625 C31.1403319 34.19278929 30.82487976 44.06198394 30 54 C29.67 54 29.34 54 29 54 C29 37.17 29 20.34 29 3 C19.43 3 9.86 3 0 3 C0 2.01 0 1.02 0 0 Z " fill="#579661" transform="translate(74,125)"/>
<path d="M0 0 C-1.98 0.66 -3.96 1.32 -6 2 C-6 1.34 -6 0.68 -6 0 C-44.94 0 -83.88 0 -124 0 C-124 -0.33 -124 -0.66 -124 -1 C-108.42314287 -1.17729862 -92.84620195 -1.34296678 -77.2690773 -1.49477577 C-70.03641055 -1.56553413 -62.80382052 -1.64010323 -55.57128906 -1.72363281 C-49.26769211 -1.79642433 -42.96406824 -1.86207672 -36.6603086 -1.91914403 C-33.32224481 -1.94961287 -29.98438668 -1.98472839 -26.64643097 -2.02626419 C-22.92088458 -2.07201733 -19.19542761 -2.10515108 -15.46972656 -2.13525391 C-14.36201904 -2.1517952 -13.25431152 -2.16833649 -12.11303711 -2.18537903 C-11.09783997 -2.19104385 -10.08264282 -2.19670868 -9.03668213 -2.20254517 C-7.71483099 -2.21637206 -7.71483099 -2.21637206 -6.36627579 -2.23047829 C-3.8166715 -1.98214357 -2.1953539 -1.2862291 0 0 Z " fill="#3C864C" transform="translate(176,28)"/>
<path d="M0 0 C0.66 0.33 1.32 0.66 2 1 C1.2575 1.721875 0.515 2.44375 -0.25 3.1875 C-2.69290515 5.68592573 -4.8681047 8.23643202 -7 11 C-7 10.34 -7 9.68 -7 9 C-10.0109362 11.0072908 -10.63016497 11.83884224 -12 15 C-12.66 14.67 -13.32 14.34 -14 14 C-19.10070214 17.41662234 -22.73755415 20.06107964 -25 26 C-26.98 26 -28.96 26 -31 26 C-29.90235199 22.70705597 -29.31692467 22.20963345 -26.640625 20.21484375 C-25.94251709 19.68850342 -25.24440918 19.16216309 -24.52514648 18.61987305 C-23.39894897 17.78709839 -23.39894897 17.78709839 -22.25 16.9375 C-20.70425675 15.77626837 -19.15868587 14.61480725 -17.61328125 13.453125 C-16.4523999 12.5859082 -16.4523999 12.5859082 -15.26806641 11.70117188 C-11.96830511 9.22617331 -8.70181251 6.70895434 -5.4375 4.1875 C-4.37380248 3.36835379 -3.31001159 2.54932879 -2.24609375 1.73046875 C-1.50488281 1.15941406 -0.76367188 0.58835938 0 0 Z " fill="#3F7E49" transform="translate(166,241)"/>
<path d="M0 0 C2.33333333 2.33333333 4.66666667 4.66666667 7 7 C7.45375 6.34 7.9075 5.68 8.375 5 C8.91125 4.34 9.4475 3.68 10 3 C10.66 3 11.32 3 12 3 C12 7 12 7 11.6875 9.9453125 C12.11728064 14.14641823 13.79619466 15.2318606 17 17.875 C17.928125 18.65617187 18.85625 19.43734375 19.8125 20.2421875 C20.534375 20.82226562 21.25625 21.40234375 22 22 C21.67 22.66 21.34 23.32 21 24 C18.99388266 22.21479439 16.9951283 20.42241288 15 18.625 C14.42765625 18.11710937 13.8553125 17.60921875 13.265625 17.0859375 C11.80558723 15.76495095 10.39847843 14.38599201 9 13 C9 12.34 9 11.68 9 11 C8.34 11 7.68 11 7 11 C5.2734375 9.1015625 5.2734375 9.1015625 3.375 6.625 C2.42753906 5.40683594 2.42753906 5.40683594 1.4609375 4.1640625 C0 2 0 2 0 0 Z " fill="#367841" transform="translate(19,207)"/>
<path d="M0 0 C0.66 0.66 1.32 1.32 2 2 C-1.79675966 8.66171383 -5.73038071 15.37726189 -11 21 C-11.66 21 -12.32 21 -13 21 C-13.20625 21.763125 -13.4125 22.52625 -13.625 23.3125 C-15.42070704 26.82229103 -17.43136312 27.52599781 -21 29 C-19.47095834 25.29144039 -17.22940107 23.14892259 -14.3125 20.4375 C-8.16590941 14.43323278 -3.7320223 7.71523841 0 0 Z " fill="#3E7845" transform="translate(225,184)"/>
<path d="M0 0 C0.33 0.66 0.66 1.32 1 2 C1.99 2.66 2.98 3.32 4 4 C-1.94 8.95 -1.94 8.95 -8 14 C-8.66 13.67 -9.32 13.34 -10 13 C-9.34 12.01 -8.68 11.02 -8 10 C-8.66 9.67 -9.32 9.34 -10 9 C-9.01 7.35 -8.02 5.7 -7 4 C-6.67 4.66 -6.34 5.32 -6 6 C-5.01 6 -4.02 6 -3 6 C-2.690625 5.195625 -2.38125 4.39125 -2.0625 3.5625 C-1 1 -1 1 0 0 Z " fill="#3E8249" transform="translate(162,268)"/>
<path d="M0 0 C0.66 0 1.32 0 2 0 C2.12117187 0.83402344 2.24234375 1.66804687 2.3671875 2.52734375 C3.34461632 9.09115424 4.46783577 15.54302216 6 22 C6.66 22 7.32 22 8 22 C9 25 9 25 8.0625 27.1875 C7.5365625 28.0846875 7.5365625 28.0846875 7 29 C2.6828796 19.4100608 -0.46090506 10.60081627 0 0 Z " fill="#387843" transform="translate(5,168)"/>
<path d="M0 0 C5.21547179 1.57890259 8.88457224 4.89183542 13 8.3125 C14.04800781 9.16618164 14.04800781 9.16618164 15.1171875 10.03710938 C18.95107974 13.1874114 22.56234978 16.42135241 26 20 C23.20805669 18.68335805 20.78422674 17.21168677 18.3203125 15.35546875 C17.63839844 14.84306641 16.95648438 14.33066406 16.25390625 13.80273438 C15.55136719 13.26970703 14.84882812 12.73667969 14.125 12.1875 C13.08279297 11.40536133 13.08279297 11.40536133 12.01953125 10.60742188 C7.91684712 7.51302452 3.87196786 4.38038574 0 1 C0 0.67 0 0.34 0 0 Z " fill="#346E3C" transform="translate(65,249)"/>
<path d="M0 0 C0.66 0.33 1.32 0.66 2 1 C-1.11983124 3.17418522 -4.24668348 5.33804562 -7.375 7.5 C-8.26445312 8.12003906 -9.15390625 8.74007812 -10.0703125 9.37890625 C-11.34648437 10.25869141 -11.34648437 10.25869141 -12.6484375 11.15625 C-13.43395996 11.70087891 -14.21948242 12.24550781 -15.02880859 12.80664062 C-17 14 -17 14 -19 14 C-17.66508398 9.99525195 -15.95948574 9.57664096 -12.3125 7.5625 C-8.08148823 5.1822407 -3.98569026 2.76784046 0 0 Z " fill="#396F3D" transform="translate(190,167)"/>
<path d="M0 0 C1 3 1 3 -0.43359375 6.13671875 C-1.09135973 7.3260128 -1.75977815 8.50946371 -2.4375 9.6875 C-2.77587891 10.29400391 -3.11425781 10.90050781 -3.46289062 11.52539062 C-4.29957915 13.0220025 -5.14862831 14.51169189 -6 16 C-6.33 14.68 -6.66 13.36 -7 12 C-6.34 12 -5.68 12 -5 12 C-5 10.02 -5 8.04 -5 6 C-4.01 6 -3.02 6 -2 6 C-2.33 5.01 -2.66 4.02 -3 3 C-2.01 2.67 -1.02 2.34 0 2 C0 1.34 0 0.68 0 0 Z " fill="#68A36D" transform="translate(248,190)"/>
<path d="M0 0 C3.125 0.375 3.125 0.375 6 1 C3.6875 3.5 3.6875 3.5 1 6 C0.01 6 -0.98 6 -2 6 C-2 2 -2 2 0 0 Z " fill="#3B8448" transform="translate(196,242)"/>
<path d="M0 0 C0.33 0.99 0.66 1.98 1 3 C0.01 3.33 -0.98 3.66 -2 4 C-2.4021875 5.175625 -2.4021875 5.175625 -2.8125 6.375 C-4.42040587 9.92931823 -6.48608262 10.54859934 -10 12 C-8.52278578 8.54798361 -6.56205999 6.35038064 -3.875 3.75 C-3.15054688 3.04359375 -2.42609375 2.3371875 -1.6796875 1.609375 C-1.12539062 1.07828125 -0.57109375 0.5471875 0 0 Z " fill="#447D4B" transform="translate(214,201)"/>
<path d="M0 0 C0.99 0.33 1.98 0.66 3 1 C2.34 2.65 1.68 4.3 1 6 C-0.98 6 -2.96 6 -5 6 C-3.86525052 2.59575156 -3.03188696 1.78346291 0 0 Z " fill="#45854F" transform="translate(140,261)"/>
<path d="M0 0 C5.94 0 11.88 0 18 0 C17.67 0.99 17.34 1.98 17 3 C16.21882813 2.76990234 16.21882813 2.76990234 15.421875 2.53515625 C12.36721485 1.86017489 9.36984029 1.65588882 6.25 1.4375 C5.07953125 1.35371094 3.9090625 1.26992188 2.703125 1.18359375 C1.81109375 1.12300781 0.9190625 1.06242187 0 1 C0 0.67 0 0.34 0 0 Z " fill="#3B9448" transform="translate(177,27)"/>
<path d="M0 0 C0 0.99 0 1.98 0 3 C-7.42857143 7.28571429 -7.42857143 7.28571429 -11 9 C-4.25 0 -4.25 0 0 0 Z " fill="#3D7846" transform="translate(198,217)"/>
<path d="M0 0 C-1.11666174 3.34998521 -1.74694925 3.79340222 -4.5625 5.6875 C-5.20316406 6.12449219 -5.84382812 6.56148437 -6.50390625 7.01171875 C-6.99761719 7.33785156 -7.49132812 7.66398438 -8 8 C-8.66 7.67 -9.32 7.34 -10 7 C-8.71372289 5.82739389 -7.42080217 4.6620717 -6.125 3.5 C-5.04605469 2.52546875 -5.04605469 2.52546875 -3.9453125 1.53125 C-2 0 -2 0 0 0 Z " fill="#3E7846" transform="translate(179,232)"/>
</svg>
